<svg xmlns="http://www.w3.org/2000/svg" viewBox="0 12.550000190734863 51 32.85000228881836" data-asc="0.9" width="51" height="32.85000228881836"><defs/><g fill="#3b82f6"><g transform="translate(0, 0)"><path d="M14.65 12.55Q19.55 12.55 23.30 14.75L22.35 19.30L21.85 19.45Q18.50 16.85 14.45 16.85Q10.05 16.85 7.73 19.82Q5.40 22.80 5.40 28.70Q5.40 34.75 7.75 37.90Q10.10 41.05 14.45 41.05Q16.55 41.05 18.63 40.33Q20.70 39.60 22.45 38.30L22.95 38.60L22.55 43.30Q18.25 45.40 14.05 45.40Q7.30 45.40 3.65 41.20Q0 37 0 29.25Q0 21.25 3.83 16.90Q7.65 12.55 14.65 12.55ZM39.80 35.80L40.00 45L34.85 45L35.10 35.80L35.05 33.85L24.90 12.90L30.40 12.90L31.05 14.90L37.40 28.35L37.80 28.35L44.85 15L45.65 12.90L51.00 12.90L39.85 33.60L39.80 35.80Z"/></g></g></svg>